<?xml version="1.0" encoding="UTF-8"?>
<svg width="33px" height="33px" viewBox="0 0 33 33" version="1.1" xmlns="http://www.w3.org/2000/svg" xmlns:xlink="http://www.w3.org/1999/xlink">
    <!-- Generator: Sketch 49.2 (51160) - http://www.bohemiancoding.com/sketch -->
    <title>icon—订单</title>
    <desc>Created with Sketch.</desc>
    <defs>
        <polygon id="path-1" points="0 0 17 0 17 19 0 19"></polygon>
    </defs>
    <g id="icon—订单" stroke="none" stroke-width="1" fill="none" fill-rule="evenodd">
        <circle id="Oval-Copy-3" stroke="#BFBFBF" fill="#FFFFFF" cx="16.5" cy="16.5" r="16.5"></circle>
        <g id="Page-1" transform="translate(9.000000, 8.000000)">
            <mask id="mask-2" fill="white">
                <use xlink:href="#path-1"></use>
            </mask>
            <g id="Clip-2"></g>
            <path d="M12.1428415,17.0998516 L10.2747541,15.0098516 L11.0220037,14.4398887 L12.3296904,15.9599258 L15.3186156,13.2999258 L15.8790162,13.8698887 L12.1428415,17.0998516 Z M4.67030962,12.3498516 L4.67030962,13.4899629 L9.52746812,13.4899629 C9.34061925,14.0599258 9.15377037,14.6299258 9.15377037,15.1998887 C9.15377037,15.7698887 9.34061925,16.1499629 9.52746812,16.7199629 L2.05497272,16.7199629 C1.49453557,16.7199629 1.12098377,16.1499629 1.12098377,15.5799629 L1.12098377,1.89996289 C1.12098377,1.32996289 1.49453557,1.13992578 2.05497272,1.13992578 L13.2636793,1.13992578 C13.82408,1.13992578 14.3846266,1.32996289 14.3846266,1.89996289 L14.3846266,11.3999629 C13.82408,11.2099258 13.6373771,11.2099258 13.2636793,11.2099258 C11.9559926,11.2099258 11.0220037,11.59 10.2747541,12.3498516 L4.67030962,12.3498516 Z M15.3186156,11.9699258 L15.3186156,1.89996289 C15.3186156,0.759851562 14.1977777,0 13.0769764,0 L1.86808736,0 C0.747286026,0 0,0.759851562 0,1.89996289 L0,15.3899258 C0,16.5299258 0.934134898,17.67 2.05497272,17.67 L10.2747541,17.67 C11.0220037,18.24 11.9559926,19 13.0769764,19 C15.1319126,19 17,17.2899258 17,15.1998887 C16.8131511,13.8698887 16.4395993,12.7299629 15.3186156,11.9699258 Z M4.67030962,3.79992578 L12.1428415,3.79992578 L12.1428415,2.65996289 L4.67030962,2.65996289 L4.67030962,3.79992578 Z M4.67030962,7.02988867 L12.1428415,7.02988867 L12.1428415,5.88992578 L4.67030962,5.88992578 L4.67030962,7.02988867 Z M3.17577406,7.02988867 L4.29675783,7.02988867 L4.29675783,5.88992578 L3.17577406,5.88992578 L3.17577406,7.02988867 Z M3.17577406,10.2598516 L4.29675783,10.2598516 L4.29675783,9.11988867 L3.17577406,9.11988867 L3.17577406,10.2598516 Z M3.17577406,13.4899629 L4.29675783,13.4899629 L4.29675783,12.3498516 L3.17577406,12.3498516 L3.17577406,13.4899629 Z M4.67030962,10.2598516 L12.1428415,10.2598516 L12.1428415,9.11988867 L4.67030962,9.11988867 L4.67030962,10.2598516 Z M3.17577406,3.79992578 L4.29675783,3.79992578 L4.29675783,2.65996289 L3.17577406,2.65996289 L3.17577406,3.79992578 Z" id="Fill-1" fill="#808080" mask="url(#mask-2)"></path>
        </g>
    </g>
</svg>