<?xml version="1.0" encoding="UTF-8"?>
<svg width="33px" height="33px" viewBox="0 0 33 33" version="1.1" xmlns="http://www.w3.org/2000/svg" xmlns:xlink="http://www.w3.org/1999/xlink">
    <!-- Generator: Sketch 49.2 (51160) - http://www.bohemiancoding.com/sketch -->
    <title>icon—下线</title>
    <desc>Created with Sketch.</desc>
    <defs></defs>
    <g id="icon—下线" stroke="none" stroke-width="1" fill="none" fill-rule="evenodd">
        <circle id="Oval-Copy-2" stroke="#BFBFBF" fill="#FFFFFF" cx="16.5" cy="16.5" r="16.5"></circle>
        <path d="M20.1232367,20.182455 L17.6264851,23.172972 L17.6264851,12.40587 C17.6264851,11.9882601 17.2839448,11.6489969 16.8621608,11.6489969 C16.4401282,11.6489969 16.0979296,11.9880419 16.0979296,12.40587 L16.0979296,23.2017168 L13.5771347,20.182455 C13.2774313,19.8843449 12.7914695,19.8843449 12.4917351,20.182455 C12.1921559,20.4793805 12.1921559,20.9618688 12.4917351,21.2593866 L16.2690289,25.7835404 C16.4286967,25.9421043 16.6405828,26.0102875 16.8498906,25.9987521 C17.0593226,26.010038 17.2716746,25.9421043 17.4314978,25.7835404 L21.2087606,21.2593866 C21.508495,20.9618688 21.508495,20.4791622 21.2087606,20.182455 C20.9089329,19.8840954 20.4228469,19.8840954 20.1232367,20.182455 M25.88883,8 L7.76423118,8 C7.34232288,8 7,8.33842145 7,8.75515839 L7,13.1592201 C7,13.5767989 7.34241608,13.9144097 7.76423118,13.9144097 C8.18601522,13.9144097 8.52855555,13.5767989 8.52855555,13.1592201 L8.52855555,9.51022324 L25.1245057,9.51022324 L25.1245057,13.1592201 C25.1245057,13.5767989 25.467046,13.9144097 25.88883,13.9144097 C26.3106451,13.9144097 26.6530612,13.5767989 26.6530612,13.1592201 L26.6530612,8.75515839 C26.6530612,8.33757968 26.3106451,8 25.88883,8" id="Fill-1" fill="#808080"></path>
    </g>
</svg>