<?xml version="1.0" encoding="UTF-8"?>
<svg width="33px" height="33px" viewBox="0 0 33 33" version="1.1" xmlns="http://www.w3.org/2000/svg" xmlns:xlink="http://www.w3.org/1999/xlink">
    <!-- Generator: Sketch 49.2 (51160) - http://www.bohemiancoding.com/sketch -->
    <title>icon—小程序码</title>
    <desc>Created with Sketch.</desc>
    <defs>
        <polygon id="path-1" points="0 0 18 0 18 18 0 18"></polygon>
    </defs>
    <g id="icon—小程序码" stroke="none" stroke-width="1" fill="none" fill-rule="evenodd">
        <circle id="Oval-Copy" stroke="#BFBFBF" fill="#FFFFFF" cx="16.5" cy="16.5" r="16.5"></circle>
        <g id="Page-1" transform="translate(8.000000, 8.000000)">
            <mask id="mask-2" fill="white">
                <use xlink:href="#path-1"></use>
            </mask>
            <g id="Clip-2"></g>
            <path d="M18,16.137781 L18,17.3554368 C17.932758,17.6947903 17.7316966,17.9020572 17.4194362,17.9999084 L16.185612,17.9999084 C16.2016547,17.387199 16.153389,16.7108049 16.2097907,16.1378726 L18,16.1378726 L18,16.137781 M14.5646077,18 L12.8226411,18 C12.8387526,17.3871074 12.7904182,16.7107362 12.8468886,16.137781 L14.5646077,16.137781 L14.5646077,18 M4.04040988,12.795588 C4.81389912,12.7111103 5.45327106,13.4447082 5.1533635,14.2519293 C4.73735234,15.3707263 2.74867138,14.9501469 3.12100046,13.5357811 C3.22385734,13.1447197 3.52133557,12.8523568 4.04040988,12.795588 M18,10.3368955 L18,12.3421243 C17.9435983,13.0184726 17.9919328,13.7983512 17.9759359,14.5144765 L12.8226411,14.5144765 L12.8226411,13.344796 C12.3386775,13.2890119 11.7500465,13.336781 11.2258843,13.3207282 C11.169391,14.8328766 11.2178171,16.4481203 11.2016369,17.9999084 L10.2580258,17.9999084 C9.44676739,17.8393802 9.67737031,16.6382581 9.67737031,15.6842487 L9.67737031,11.9840388 C9.67737031,11.4276402 9.56323768,10.593443 9.70164069,10.1457044 C9.8667434,9.61161024 10.5822954,9.69217205 11.2984892,9.69217205 L14.8065093,9.69217205 L14.8065093,12.8672417 L16.4275136,12.8672417 C16.4435334,11.8168009 16.3952676,10.7027213 16.4515777,9.69217205 C17.2317132,9.64664707 17.9542553,9.65782222 18,10.3368955 M1.54839942,11.3154765 L1.54839942,16.4482119 L6.75002865,16.4482119 L6.75002865,11.2439144 L1.57266979,11.2439144 C1.54438873,11.2480592 1.54626803,11.281745 1.54849109,11.3154765 M7.71788715,18 L0.580655511,18 C0.284323187,17.9102782 0.0841556299,17.7258654 0,17.4270906 L0,10.2413572 C0.0704505463,10.0309301 0.233123929,9.785741 0.483780281,9.71605664 C0.957453635,9.58465707 1.73103455,9.69217205 2.29844334,9.69217205 L5.99991597,9.69217205 C6.54699632,9.69217205 7.34322041,9.57176444 7.83864314,9.71614824 C8.50909216,9.9113698 8.32253801,11.1235983 8.32253801,11.9840388 L8.32253801,15.7796954 C8.32253801,16.7084004 8.52520365,17.9170795 7.71788715,18 M13.5968409,3.12732338 C15.3032613,2.81272471 15.2704882,5.47925652 13.5968409,5.20416015 C12.5317634,5.02918209 12.4972944,3.32985001 13.5968409,3.12732338 M3.91937887,3.12732338 C4.64380024,2.99235144 5.2134321,3.4754246 5.22587668,4.12992634 C5.24207985,4.99322927 4.34854508,5.46741727 3.65329857,5.10871341 C2.85769326,4.69839319 2.90999259,3.31521698 3.91937887,3.12732338 M11.2257927,1.62339605 L11.2257927,6.75592535 L16.4276052,6.75592535 L16.4276052,1.5517194 L11.2499714,1.5517194 C11.2218507,1.55556658 11.22373,1.58936682 11.2257927,1.62339605 M10.23387,0 L17.4437065,0 C17.7377929,0.10767528 17.9397481,0.30617152 18,0.644586085 L18,7.66303576 C17.9340185,7.95473455 17.7796873,8.20367925 17.4919493,8.28364566 C17.0217596,8.41433533 16.240226,8.30762185 15.6774696,8.30762185 L11.9758366,8.30762185 C11.4176409,8.30762185 10.5903397,8.42356399 10.1371782,8.28364566 C9.49734785,8.08622572 9.67746199,6.85402847 9.67746199,5.99196214 L9.67746199,2.31554521 C9.67746199,1.32038472 9.4560951,0.139071028 10.23387,0 M1.54849109,1.62328155 L1.54849109,6.75592535 L6.75002865,6.75592535 L6.75002865,1.5517194 L1.57266979,1.5517194 C1.54438873,1.55556658 1.54626803,1.58936682 1.54849109,1.62339605 M0.556385138,0 L7.76622163,0 C8.49926025,0.0714476547 8.32253801,1.3449792 8.32253801,2.1723293 L8.32253801,6.11129346 C8.32253801,6.96745162 8.48599061,8.01672455 7.91133967,8.25994428 C7.53703963,8.41818251 6.53258077,8.30762185 6.04834212,8.30762185 L2.22593016,8.30762185 C1.34213562,8.30762185 0.135629907,8.51559864 0,7.7584825 L0,0.549070646 C0.0988232778,0.280523644 0.272611987,0.0859432846 0.556385138,0" id="Fill-1" fill="#808080" mask="url(#mask-2)"></path>
        </g>
    </g>
</svg>