<?xml version="1.0" encoding="UTF-8"?>
<svg width="33px" height="33px" viewBox="0 0 33 33" version="1.1" xmlns="http://www.w3.org/2000/svg" xmlns:xlink="http://www.w3.org/1999/xlink">
    <!-- Generator: Sketch 49.2 (51160) - http://www.bohemiancoding.com/sketch -->
    <title>icon—备注</title>
    <desc>Created with Sketch.</desc>
    <defs>
        <polygon id="path-1" points="0 0 17.9949941 0 17.9949941 17.9950017 0 17.9950017"></polygon>
    </defs>
    <g id="icon—备注" stroke="none" stroke-width="1" fill="none" fill-rule="evenodd">
        <circle id="Oval-Copy" stroke="#BFBFBF" fill="#FFFFFF" cx="16.5" cy="16.5" r="16.5"></circle>
        <g id="Page-1" transform="translate(8.000000, 9.000000)">
            <mask id="mask-2" fill="white">
                <use xlink:href="#path-1"></use>
            </mask>
            <g id="Clip-2"></g>
            <path d="M13.4962745,8.99743682 L4.49873473,8.99743682 C4.14400669,8.99743682 3.85610711,9.28536151 3.85610711,9.64016485 C3.85610711,9.9949682 4.14400669,10.2828929 4.49873473,10.2828929 L13.4962745,10.2828929 C13.8509774,10.2828929 14.1389021,9.9949682 14.1389021,9.64016485 C14.1389021,9.28536151 13.8509774,8.99743682 13.4962745,8.99743682 Z M13.4962745,5.14144519 L4.49873473,5.14144519 C4.14400669,5.14144519 3.85610711,5.42936987 3.85610711,5.7840477 C3.85610711,6.13885105 4.14400669,6.42677573 4.49873473,6.42677573 L13.4962745,6.42677573 C13.8509774,6.42677573 14.1389021,6.13885105 14.1389021,5.7840477 C14.1389021,5.42936987 13.8509774,5.14144519 13.4962745,5.14144519 Z M16.7096636,12.853554 C16.7096636,13.5630603 16.1338393,14.1388845 15.4242326,14.1388845 L8.99742929,14.1388845 C8.65686025,14.1388845 8.32911967,14.2738218 8.08879331,14.515554 C7.84841674,14.7571858 7.71212385,15.083646 7.71212385,15.4242151 L7.71212385,16.0284075 L6.00777238,14.4744075 C5.76993138,14.2584326 5.46142092,14.1388845 5.14143766,14.1388845 L2.57065105,14.1388845 C1.86119498,14.1388845 1.28534561,13.5630603 1.28534561,12.853554 L1.28534561,2.57065858 C1.28534561,1.86117741 1.86119498,1.28532803 2.57065105,1.28532803 L15.4242326,1.28532803 C16.1338393,1.28532803 16.7096636,1.86117741 16.7096636,2.57065858 L16.7096636,12.853554 Z M15.4242326,-2.51046025e-06 L2.57065105,-2.51046025e-06 C1.15678494,-2.51046025e-06 -1.0041841e-05,1.15676736 -1.0041841e-05,2.57065858 L-1.0041841e-05,12.853554 C-1.0041841e-05,14.2674452 1.15678494,15.4242151 2.57065105,15.4242151 L5.14143766,15.4242151 L7.79439163,17.8432946 C7.93455063,17.9474285 8.09135397,17.9950017 8.24296067,17.9950017 C8.63243347,17.9950017 8.99742929,17.6877967 8.99742929,17.2417632 L8.99742929,15.4242151 L15.4242326,15.4242151 C16.8381238,15.4242151 17.9949941,14.2674452 17.9949941,12.853554 L17.9949941,2.57065858 C17.9949941,1.15676736 16.8381238,-2.51046025e-06 15.4242326,-2.51046025e-06 Z" id="Fill-1" fill="#808080" mask="url(#mask-2)"></path>
        </g>
    </g>
</svg>